<svg width="25" height="25" viewBox="0 0 25 25" fill="none" xmlns="http://www.w3.org/2000/svg">
<path d="M9.5 22.5117H15.5C20.5 22.5117 22.5 20.5117 22.5 15.5117V9.51172C22.5 4.51172 20.5 2.51172 15.5 2.51172H9.5C4.5 2.51172 2.5 4.51172 2.5 9.51172V15.5117C2.5 20.5117 4.5 22.5117 9.5 22.5117Z" stroke="#D9D9D9" stroke-width="1.5" stroke-linecap="round" stroke-linejoin="round"/>
<path d="M12.5 16.0117C14.433 16.0117 16 14.4447 16 12.5117C16 10.5787 14.433 9.01172 12.5 9.01172C10.567 9.01172 9 10.5787 9 12.5117C9 14.4447 10.567 16.0117 12.5 16.0117Z" stroke="#D9D9D9" stroke-width="1.5" stroke-linecap="round" stroke-linejoin="round"/>
<path d="M18.1361 7.51172H18.1477" stroke="#D9D9D9" stroke-width="2" stroke-linecap="round" stroke-linejoin="round"/>
</svg>
