<svg width="35" height="36" viewBox="0 0 35 36" fill="none" xmlns="http://www.w3.org/2000/svg">
<path d="M15.5957 2.75848C16.0233 0.306478 19.5431 0.306483 19.9707 2.75849L21.6366 12.3114C21.7975 13.234 22.5199 13.9565 23.4426 14.1173L32.9954 15.7832C35.4474 16.2108 35.4474 19.7306 32.9954 20.1582L23.4426 21.8241C22.5199 21.985 21.7975 22.7074 21.6366 23.6301L19.9707 33.1829C19.5431 35.6349 16.0233 35.6349 15.5957 33.1829L13.9298 23.6301C13.769 22.7074 13.0465 21.985 12.1239 21.8241L2.57098 20.1582C0.118978 19.7306 0.118983 16.2108 2.57099 15.7832L12.1239 14.1173C13.0465 13.9565 13.769 13.234 13.9298 12.3114L15.5957 2.75848Z" fill="#FFB800"/>
</svg>
