<svg width="25" height="25" viewBox="0 0 25 25" fill="none" xmlns="http://www.w3.org/2000/svg">
<path d="M7.4 21.1117C8.9 22.0117 10.7 22.5117 12.5 22.5117C18 22.5117 22.5 18.0117 22.5 12.5117C22.5 7.01172 18 2.51172 12.5 2.51172C7 2.51172 2.5 7.01172 2.5 12.5117C2.5 14.3117 3 16.0117 3.8 17.5117L2.94044 20.8177C2.74572 21.5666 3.43892 22.2435 4.18299 22.0309L7.4 21.1117Z" stroke="#D9D9D9" stroke-width="1.5" stroke-miterlimit="10" stroke-linecap="round" stroke-linejoin="round"/>
<path d="M17 15.3602C17 15.5222 16.9639 15.6887 16.8873 15.8507C16.8107 16.0127 16.7116 16.1657 16.5809 16.3097C16.36 16.5527 16.1167 16.7282 15.8418 16.8407C15.5714 16.9532 15.2784 17.0117 14.9629 17.0117C14.5033 17.0117 14.012 16.9037 13.4937 16.6832C12.9755 16.4627 12.4572 16.1657 11.9434 15.7922C11.4251 15.4142 10.9339 14.9957 10.4652 14.5322C10.001 14.0642 9.58187 13.5737 9.20781 13.0607C8.83826 12.5477 8.54081 12.0347 8.32449 11.5262C8.10816 11.0132 8 10.5227 8 10.0547C8 9.74872 8.05408 9.45622 8.16224 9.18622C8.27041 8.91172 8.44166 8.65972 8.68052 8.43472C8.96895 8.15122 9.28443 8.01172 9.61793 8.01172C9.74412 8.01172 9.87031 8.03872 9.98297 8.09272C10.1002 8.14672 10.2038 8.22772 10.2849 8.34472L11.3305 9.81622C11.4116 9.92872 11.4702 10.0322 11.5108 10.1312C11.5513 10.2257 11.5739 10.3202 11.5739 10.4057C11.5739 10.5137 11.5423 10.6217 11.4792 10.7252C11.4206 10.8287 11.335 10.9367 11.2268 11.0447L10.8843 11.4002C10.8348 11.4497 10.8122 11.5082 10.8122 11.5802C10.8122 11.6162 10.8167 11.6477 10.8257 11.6837C10.8393 11.7197 10.8528 11.7467 10.8618 11.7737C10.9429 11.9222 11.0826 12.1157 11.2809 12.3497C11.4837 12.5837 11.7 12.8222 11.9344 13.0607C12.1778 13.2992 12.4121 13.5197 12.651 13.7222C12.8853 13.9202 13.0791 14.0552 13.2323 14.1362C13.2549 14.1452 13.2819 14.1587 13.3135 14.1722C13.3495 14.1857 13.3856 14.1902 13.4261 14.1902C13.5028 14.1902 13.5613 14.1632 13.6109 14.1137L13.9534 13.7762C14.0661 13.6637 14.1743 13.5782 14.2779 13.5242C14.3816 13.4612 14.4852 13.4297 14.5979 13.4297C14.6835 13.4297 14.7737 13.4477 14.8728 13.4882C14.972 13.5287 15.0756 13.5872 15.1883 13.6637L16.68 14.7212C16.7972 14.8022 16.8783 14.8967 16.9279 15.0092C16.973 15.1217 17 15.2342 17 15.3602Z" stroke="#D9D9D9" stroke-width="1.5" stroke-miterlimit="10"/>
</svg>
